<svg xmlns="http://www.w3.org/2000/svg" viewBox="0 0 64 64">
  <defs>
    <!-- Background gradient -->
    <linearGradient id="bg-gradient" x1="0%" y1="0%" x2="100%" y2="100%">
      <stop offset="0%" stop-color="#0a0a0a" />
      <stop offset="100%" stop-color="#121212" />
    </linearGradient>
    
    <!-- Emerald gradient for the C -->
    <linearGradient id="emerald-gradient" x1="0%" y1="0%" x2="100%" y2="100%">
      <stop offset="0%" stop-color="#00ff88" />
      <stop offset="50%" stop-color="#00bb77" />
      <stop offset="100%" stop-color="#00ff88" />
    </linearGradient>
    
    <!-- Glow effect -->
    <filter id="glow" x="-30%" y="-30%" width="160%" height="160%">
      <feGaussianBlur stdDeviation="2" result="blur" />
      <feComposite in="SourceGraphic" in2="blur" operator="over" />
    </filter>
  </defs>
  
  <!-- Background -->
  <rect width="64" height="64" rx="12" fill="url(#bg-gradient)" />
  
  <!-- AI circuit pattern -->
  <g stroke="#00bb77" stroke-width="0.5" fill="none" opacity="0.3">
    <path d="M10,20 L25,20 L25,44 L45,44" />
    <path d="M20,10 L20,30 L54,30" />
    <path d="M40,54 L40,36 L10,36" />
    <circle cx="25" cy="20" r="1.5" fill="#00ff88" />
    <circle cx="25" cy="44" r="1.5" fill="#00ff88" />
    <circle cx="20" cy="30" r="1.5" fill="#00ff88" />
    <circle cx="40" cy="36" r="1.5" fill="#00ff88" />
  </g>
  
  <!-- Letter C with emerald gradient -->
  <path d="M45,18 C41,12 35,10 29,10 C17,10 12,20 12,32 C12,44 17,54 29,54 C35,54 41,52 45,46" 
        stroke="url(#emerald-gradient)" 
        stroke-width="6" 
        fill="none" 
        stroke-linecap="round"
        filter="url(#glow)" />
</svg>
