<?xml version="1.0" encoding="UTF-8"?>
<svg viewBox="0 0 800 400" xmlns="http://www.w3.org/2000/svg">
  <!-- Background elements -->
  <defs>
    <linearGradient id="bgGradient" x1="0%" y1="0%" x2="100%" y2="100%">
      <stop offset="0%" stop-color="#f8fafc" />
      <stop offset="100%" stop-color="#e2e8f0" />
    </linearGradient>
    <linearGradient id="accentGradient" x1="0%" y1="0%" x2="100%" y2="100%">
      <stop offset="0%" stop-color="#c084fc" />
      <stop offset="100%" stop-color="#7c3aed" />
    </linearGradient>
    <filter id="glow" x="-20%" y="-20%" width="140%" height="140%">
      <feGaussianBlur stdDeviation="8" result="blur" />
      <feComposite in="SourceGraphic" in2="blur" operator="over" />
    </filter>
    <filter id="softShadow" x="-10%" y="-10%" width="120%" height="120%">
      <feDropShadow dx="0" dy="3" stdDeviation="5" flood-opacity="0.08"/>
    </filter>
  </defs>
  
  <!-- Background -->
  <rect width="800" height="400" rx="20" fill="url(#bgGradient)"/>
  
  <!-- Subtle network grid pattern -->
  <g opacity="0.05">
    <path d="M0,80 H800 M0,160 H800 M0,240 H800 M0,320 H800" stroke="#94a3b8" stroke-width="1"/>
    <path d="M100,0 V400 M200,0 V400 M300,0 V400 M400,0 V400 M500,0 V400 M600,0 V400 M700,0 V400" stroke="#94a3b8" stroke-width="1"/>
  </g>
  
  <!-- Elegant central design element -->
  <g transform="translate(400,200)">
    <!-- Outer circle -->
    <circle r="130" fill="none" stroke="#e9d5ff" stroke-width="1" opacity="0.6">
      <animate attributeName="r" values="130;135;130" dur="10s" repeatCount="indefinite" />
    </circle>
    
    <!-- Middle circle -->
    <circle r="90" fill="none" stroke="#c4b5fd" stroke-width="1" opacity="0.7">
      <animate attributeName="r" values="90;95;90" dur="8s" repeatCount="indefinite" />
    </circle>
    
    <!-- Inner circle with subtle gradient -->
    <circle r="50" fill="url(#accentGradient)" opacity="0.1" />
    
    <!-- Animated central point -->
    <circle r="20" fill="url(#accentGradient)" opacity="0.7" filter="url(#glow)">
      <animate attributeName="r" values="20;22;20" dur="4s" repeatCount="indefinite" />
      <animate attributeName="opacity" values="0.7;0.9;0.7" dur="6s" repeatCount="indefinite" />
    </circle>
    
    <!-- Orbital elements -->
    <g>
      <circle r="4" fill="#c084fc" cx="0" cy="-90">
        <animateTransform attributeName="transform" type="rotate" from="0" to="360" dur="20s" repeatCount="indefinite" />
      </circle>
      <circle r="6" fill="#a855f7" cx="0" cy="110">
        <animateTransform attributeName="transform" type="rotate" from="170" to="530" dur="25s" repeatCount="indefinite" />
      </circle>
      <circle r="5" fill="#8b5cf6" cx="0" cy="-125">
        <animateTransform attributeName="transform" type="rotate" from="240" to="600" dur="30s" repeatCount="indefinite" />
      </circle>
    </g>
    
    <!-- Sophisticated particle connections -->
    <g opacity="0.6">
      <path d="M-80,-40 Q0,10 80,50" fill="none" stroke="#c084fc" stroke-width="1" />
      <path d="M-40,90 Q-10,20 60,-50" fill="none" stroke="#a855f7" stroke-width="1" />
      <path d="M-70,50 Q0,-20 85,10" fill="none" stroke="#8b5cf6" stroke-width="1" />
    </g>
  </g>
  
  <!-- Modern minimalist elements on left and right -->
  <g transform="translate(150,200)">
    <!-- Left side visualization -->
    <rect x="-40" y="-80" width="80" height="160" rx="40" fill="white" opacity="0.6" filter="url(#softShadow)" />
    
    <!-- Abstract voice wave visualization -->
    <g transform="translate(0,-30)" opacity="0.8">
      <path d="M-25,0 Q-15,-20 0,0 Q15,20 25,0" fill="none" stroke="#a855f7" stroke-width="1.5" />
      <path d="M-20,-7 Q-10,-25 0,-7 Q10,10 20,-7" fill="none" stroke="#a855f7" stroke-width="1.5" />
      <path d="M-15,-14 Q-5,-30 0,-14 Q5,2 15,-14" fill="none" stroke="#a855f7" stroke-width="1.5" />
    </g>
    
    <!-- Abstract dot indicators -->
    <g transform="translate(0,30)">
      <circle cx="-15" cy="0" r="3" fill="#c084fc" />
      <circle cx="0" cy="0" r="3" fill="#a855f7" />
      <circle cx="15" cy="0" r="3" fill="#8b5cf6" />
    </g>
  </g>
  
  <g transform="translate(650,200)">
    <!-- Right side visualization -->
    <rect x="-40" y="-80" width="80" height="160" rx="40" fill="white" opacity="0.6" filter="url(#softShadow)" />
    
    <!-- Abstract AI data visualization -->
    <g transform="translate(0,0)" opacity="0.8">
      <line x1="-25" y1="30" x2="-25" y2="-10" stroke="#c084fc" stroke-width="1.5" />
      <line x1="-15" y1="35" x2="-15" y2="-25" stroke="#c084fc" stroke-width="1.5" />
      <line x1="-5" y1="25" x2="-5" y2="-40" stroke="#a855f7" stroke-width="1.5" />
      <line x1="5" y1="15" x2="5" y2="-20" stroke="#a855f7" stroke-width="1.5" />
      <line x1="15" y1="30" x2="15" y2="-30" stroke="#8b5cf6" stroke-width="1.5" />
      <line x1="25" y1="25" x2="25" y2="-15" stroke="#8b5cf6" stroke-width="1.5" />
    </g>
    
    <!-- Subtle brand indicator -->
    <g transform="translate(0,60)">
      <text font-family="'Segoe UI', Arial, sans-serif" font-size="10" fill="#7c3aed" text-anchor="middle" font-weight="500">EUPHORIE</text>
    </g>
  </g>
  
  <!-- Elegant connecting lines between elements -->
  <path d="M190,200 C300,150 500,250 610,200" fill="none" stroke="#e9d5ff" stroke-width="1" opacity="0.4" />
  <path d="M190,200 C300,250 500,150 610,200" fill="none" stroke="#e9d5ff" stroke-width="1" opacity="0.4" />
  
  <!-- Subtle floating particles -->
  <g>
    <circle cx="250" cy="100" r="2" fill="#c084fc" opacity="0.6">
      <animate attributeName="cy" values="100;110;100" dur="8s" repeatCount="indefinite" />
    </circle>
    <circle cx="550" cy="300" r="2" fill="#a855f7" opacity="0.6">
      <animate attributeName="cy" values="300;290;300" dur="10s" repeatCount="indefinite" />
    </circle>
    <circle cx="200" cy="350" r="2" fill="#8b5cf6" opacity="0.6">
      <animate attributeName="cy" values="350;360;350" dur="7s" repeatCount="indefinite" />
    </circle>
    <circle cx="600" cy="150" r="2" fill="#c084fc" opacity="0.6">
      <animate attributeName="cy" values="150;140;150" dur="9s" repeatCount="indefinite" />
    </circle>
  </g>
</svg>